<svg width="27" height="27" viewBox="0 0 27 27" fill="none" xmlns="http://www.w3.org/2000/svg">
<path d="M11.1309 14.7144C10.8592 14.7144 10.6389 14.9357 10.6389 15.2088V15.463L10.6395 15.4753C10.6907 16.5044 11.4634 17.5349 12.7781 17.6365L12.7969 17.638H13.0565C13.3283 17.638 13.5486 17.4166 13.5486 17.1436C13.5486 16.8705 13.3283 16.6491 13.0565 16.6491H12.8359C12.0802 16.5825 11.6568 16.0118 11.623 15.4373V15.2088C11.623 14.9357 11.4027 14.7144 11.1309 14.7144Z" fill="white"/>
<path fill-rule="evenodd" clip-rule="evenodd" d="M12.4804 6.72506C9.93703 6.83756 7.97077 8.93535 7.8431 11.4902C7.77906 12.7716 7.72913 13.9173 7.72913 14.9824C7.72913 15.9758 7.77257 16.9704 7.83038 18.1136C7.95893 20.6557 9.92194 22.7346 12.4527 22.8486C12.836 22.8659 13.2074 22.8762 13.5485 22.8762C13.9003 22.8762 14.2844 22.8652 14.6804 22.847C17.1947 22.7311 19.1504 20.6767 19.2743 18.1508C19.3283 17.0511 19.368 16.0683 19.368 14.9824C19.368 13.7694 19.3238 12.6505 19.2653 11.4418C19.1427 8.90808 17.1856 6.84219 14.6635 6.72717C14.2735 6.70938 13.8954 6.69875 13.5485 6.69875C13.2157 6.69875 12.8539 6.70855 12.4804 6.72506ZM9.2575 11.7832C9.35393 9.8359 10.8255 8.24537 12.721 8.15761C13.0104 8.14421 13.291 8.13621 13.5486 8.13621C13.8189 8.13621 14.1147 8.14502 14.4195 8.15965C16.2951 8.24968 17.757 9.81034 17.8478 11.7376C17.8564 11.9213 17.8645 12.0779 17.8719 12.2198C17.8968 12.7009 17.9131 13.0161 17.9131 13.6696C17.9131 14.3143 17.8953 14.6812 17.8685 15.233C17.8642 15.3216 17.8596 15.4152 17.8549 15.5153C17.7641 17.4351 16.3037 18.9848 14.4353 19.0756C14.1249 19.0907 13.8236 19.0998 13.5486 19.0998C13.2835 19.0998 12.994 19.0913 12.6955 19.0772C10.8117 18.9881 9.34327 17.4153 9.24751 15.4799C9.24126 15.3536 9.23531 15.2379 9.22974 15.1295L9.2297 15.1287C9.20229 14.596 9.18401 14.2405 9.18401 13.6696C9.18401 13.1213 9.20088 12.8201 9.2265 12.3629C9.23581 12.1967 9.24627 12.0099 9.2575 11.7832Z" fill="white"/>
<path fill-rule="evenodd" clip-rule="evenodd" d="M7.30529 0.827148H19.7919C22.5324 0.827148 23.2407 1.11288 23.9251 1.48066C24.664 1.87769 25.233 2.4494 25.6281 3.1918C25.9942 3.87949 26.2785 4.59118 26.2785 7.34486V7.77855C26.2785 7.97796 26.1194 8.14031 25.9212 8.14876C25.8601 8.15135 25.7984 8.15432 25.7362 8.15761C24.0777 8.24537 22.7901 9.8359 22.7057 11.7832C22.6959 12.0084 22.6868 12.1946 22.6787 12.3599L22.6786 12.362L22.6786 12.3629C22.6562 12.8201 22.6414 13.1213 22.6414 13.6696C22.6414 14.2405 22.6574 14.5961 22.6814 15.1288C22.6863 15.2374 22.6915 15.3533 22.697 15.4799C22.7808 17.4153 24.0656 18.9881 25.714 19.0772C25.7837 19.081 25.8528 19.0844 25.9212 19.0873C26.1194 19.0957 26.2785 19.2581 26.2785 19.4575V19.8912C26.2785 22.6448 25.9942 23.3565 25.6281 24.0442C25.233 24.7866 24.664 25.3583 23.9251 25.7554C23.2407 26.1231 22.5324 26.4089 19.7919 26.4089H7.30529C4.56471 26.4089 3.85642 26.1231 3.172 25.7554C2.43314 25.3583 1.86415 24.7866 1.469 24.0442C1.10297 23.3565 0.818604 22.6448 0.818604 19.8912V19.4575C0.818604 19.2581 0.97771 19.0957 1.17599 19.0873C1.25394 19.084 1.33295 19.08 1.41264 19.0756C3.04747 18.9848 4.32531 17.4351 4.40478 15.5153C4.40886 15.4167 4.41278 15.3246 4.41649 15.2373L4.41668 15.2329C4.44014 14.681 4.45574 14.3143 4.45574 13.6696C4.45574 13.0161 4.44144 12.7006 4.41963 12.2195C4.41319 12.0776 4.40611 11.9213 4.39854 11.7376C4.31914 9.81034 3.03998 8.24968 1.39879 8.15965C1.3238 8.15554 1.24942 8.15188 1.17599 8.14876C0.977716 8.14031 0.818604 7.97796 0.818604 7.77855V7.34486C0.818604 4.59118 1.10297 3.87949 1.469 3.1918C1.86415 2.44941 2.43314 1.8777 3.172 1.48066C3.85642 1.11288 4.56471 0.827148 7.30529 0.827148ZM12.4251 5.45934C9.18702 5.60256 6.74187 8.26506 6.58388 11.4266C6.51984 12.708 6.46833 13.8821 6.46833 14.9823C6.46833 16.0106 6.51331 17.0331 6.5712 18.1778C6.73067 21.3314 9.17676 23.9692 12.3963 24.1142C12.7925 24.132 13.1836 24.143 13.5486 24.143C13.925 24.143 14.3291 24.1313 14.7382 24.1125C17.9343 23.9652 20.3794 21.3582 20.5337 18.2131C20.588 17.1075 20.6289 16.1 20.6289 14.9823C20.6289 13.7383 20.5836 12.5951 20.5248 11.3802C20.3723 8.23008 17.9283 5.60781 14.7208 5.46152C14.3177 5.44314 13.9197 5.43181 13.5486 5.43181C13.1923 5.43181 12.8113 5.44226 12.4251 5.45934Z" fill="white"/>
</svg>
